<svg id="Layer_1" xmlns="http://www.w3.org/2000/svg" viewBox="0 0 107.5 29.7" width="2500" height="691"><style>.st0{fill:url(#SVGID_1_)}</style><linearGradient id="SVGID_1_" gradientUnits="userSpaceOnUse" x1="-362.805" y1="302.585" x2="-361.805" y2="302.585" gradientTransform="matrix(107.5 0 0 -29.7 39001.504 9001.627)"><stop offset="0" stop-color="#3ab795"/><stop offset="1" stop-color="#c1da5a"/></linearGradient><path class="st0" d="M12.7 8.4c-2.8 0-5.1.8-6.3 2.5V0H0v29.2h6.5V18.3c0-2.6 1.5-4 4.1-4 2.3 0 3.4 1.3 3.4 3.6v11.3h6.4v-4.5-7.2c0-5.8-3.2-9.1-7.7-9.1zm21 0c-6.3 0-11.2 4.4-11.2 10.7 0 6.2 4.9 10.6 11.2 10.6s11.2-4.4 11.2-10.6c0-6.2-4.9-10.7-11.2-10.7zm0 15.8c-2.9 0-4.6-2.1-4.6-5.1 0-3.1 1.8-5.1 4.6-5.1 2.9 0 4.6 2.1 4.6 5.1s-1.7 5.1-4.6 5.1zM70.2 8.9h-5.4c-2.2 0-4.9 1.3-6.2 4.5l-.8 1.5c-.9 2.1-1.6 3.5-1.6 3.5l-.2.9-.3-.9s-.7-1.5-1.6-3.5l-.7-1.6c-1.3-3.2-4.1-4.5-6.2-4.5h-5.4s2.2.6 4.5 4.5c2.3 3.8 8.6 16.3 8.6 16.3h2.3s6.3-12.5 8.6-16.3c2.2-3.8 4.4-4.4 4.4-4.4zm8.4-.5c-6.3 0-11.2 4.4-11.2 10.6 0 6.3 4.7 10.7 12 10.7 4.3 0 6.7-1.3 8.7-3l-3.7-4c-1 .7-2.8 1.6-5.1 1.6-2.9 0-4.6-1.2-5.3-3.3h15.5c.3-7.1-3.6-12.6-10.9-12.6zM74 17.1c.5-2.4 2.2-3.6 4.8-3.6 2.5 0 4 1.3 4.3 3.6H74zm30.1-8.7c-2.1 0-4.5.7-5.7 2.9V8.8h-6.5v20.3h6.5v-9c0-4.3 1.6-5.7 4.5-5.7.9 0 1.7.2 2.5.6l2.1-5.9c-.8-.3-2-.7-3.4-.7z"/></svg>
